# Rhino

v 0 -0.5 0.5
v 0 -0.40000000596046448 0.5
v 0.5 -0.5 0.5
v 0.5 -0.40000000596046448 0.5
v 0.5 -0.5 -0.5
v 0.5 -0.40000000596046448 -0.5
v 0 -0.5 -0.5
v 0 -0.40000000596046448 -0.5
vt 0 0
vt 0 0.54545426368713379
vt 0.1666666716337204 0
vt 0.1666666716337204 0.54545426368713379
vt 0.1666666716337204 0
vt 0.1666666716337204 0.54545426368713379
vt 0.5 0
vt 0.5 0.54545426368713379
vt 0.5 0
vt 0.5 0.54545426368713379
vt 0.66666668653488159 0
vt 0.66666668653488159 0.54545426368713379
vt 0.66666668653488159 0
vt 0.66666668653488159 0.54545426368713379
vt 1 0
vt 1 0.54545426368713379
vt 0.3333333432674408 1
vt 0.3333333432674408 0.54545480012893677
vt 0 0.54545480012893677
vt 0 1
vt 1 0.54545480012893677
vt 1 1
vt 0.66666668653488159 1
vt 0.66666668653488159 0.54545480012893677
vn 0 0 1
vn 0 0 1
vn 0 0 1
vn 0 0 1
vn 1 0 0
vn 1 0 0
vn 1 0 0
vn 1 0 0
vn 0 0 -1
vn 0 0 -1
vn 0 0 -1
vn 0 0 -1
vn -1 0 0
vn -1 0 0
vn -1 0 0
vn -1 0 0
vn 0 -1 0
vn 0 -1 0
vn 0 -1 0
vn 0 -1 0
vn 0 1 0
vn 0 1 0
vn 0 1 0
vn 0 1 0
f 1/1/1 3/3/3 4/4/4 2/2/2
f 3/5/5 5/7/7 6/8/8 4/6/6
f 5/9/9 7/11/11 8/12/12 6/10/10
f 7/13/13 1/15/15 2/16/16 8/14/14
f 3/18/18 1/17/17 7/20/20
f 7/20/20 5/19/19 3/18/18
f 4/22/22 8/24/24 2/21/21
f 8/24/24 4/22/22 6/23/23
v -0.5 -0.5 0.5
v -0.5 -0.40000000596046448 0.5
v 0 -0.5 0.5
v 0 -0.40000000596046448 0.5
v 0 -0.5 -0.5
v 0 -0.40000000596046448 -0.5
v -0.5 -0.5 -0.5
v -0.5 -0.40000000596046448 -0.5
vt 0 0
vt 0 0.54545426368713379
vt 0.1666666716337204 0
vt 0.1666666716337204 0.54545426368713379
vt 0.1666666716337204 0
vt 0.1666666716337204 0.54545426368713379
vt 0.5 0
vt 0.5 0.54545426368713379
vt 0.5 0
vt 0.5 0.54545426368713379
vt 0.66666668653488159 0
vt 0.66666668653488159 0.54545426368713379
vt 0.66666668653488159 0
vt 0.66666668653488159 0.54545426368713379
vt 1 0
vt 1 0.54545426368713379
vt 0.3333333432674408 1
vt 0.3333333432674408 0.54545480012893677
vt 0 0.54545480012893677
vt 0 1
vt 1 0.54545480012893677
vt 1 1
vt 0.66666668653488159 1
vt 0.66666668653488159 0.54545480012893677
vn 0 0 1
vn 0 0 1
vn 0 0 1
vn 0 0 1
vn 1 0 0
vn 1 0 0
vn 1 0 0
vn 1 0 0
vn 0 0 -1
vn 0 0 -1
vn 0 0 -1
vn 0 0 -1
vn -1 0 0
vn -1 0 0
vn -1 0 0
vn -1 0 0
vn 0 -1 0
vn 0 -1 0
vn 0 -1 0
vn 0 -1 0
vn 0 1 0
vn 0 1 0
vn 0 1 0
vn 0 1 0
f 9/25/25 11/27/27 12/28/28 10/26/26
f 11/29/29 13/31/31 14/32/32 12/30/30
f 13/33/33 15/35/35 16/36/36 14/34/34
f 15/37/37 9/39/39 10/40/40 16/38/38
f 11/42/42 9/41/41 15/44/44
f 15/44/44 13/43/43 11/42/42
f 12/46/46 16/48/48 10/45/45
f 16/48/48 12/46/46 14/47/47
